<svg version="1" xmlns="http://www.w3.org/2000/svg" width="933.333" height="933.333" viewBox="0 0 700.000000 700.000000"><path d="M319.5 1.1c-3.3.4-8.9 1.1-12.5 1.4-7.7.8-10.8 1.2-17.5 2.5-7.1 1.4-9.5 1.9-13.5 2.6-12.6 2.2-46.5 13-59.2 18.8-3.1 1.4-6 2.6-6.3 2.6-.4 0-7.3 3.4-15.5 7.5-24.5 12.3-45.9 26.2-67.5 43.8-13.1 10.7-38.6 36.1-47.9 47.8-3.7 4.6-8 10-9.5 11.9-4.5 5.5-16 22.7-21.8 32.5C28.8 205.2 10.7 254 5.4 288c-.3 1.9-.7 4.2-.9 5-.5 1.9-1.3 7.7-2.9 22.5-1.2 11.3-1.5 59.2-.3 64 .3 1.1.8 5.6 1.1 10 .4 4.4.9 8.7 1.1 9.5.2.8.7 2.8.9 4.5C6.3 415 8.2 424.7 10 432c1.2 4.7 2.3 9.2 2.5 10 .8 3.6 7.8 25.6 8.3 26.5.4.5.7 1.4.8 2 .5 2.8 9.1 23 14.8 34.7 5.4 11 10.7 20.4 20.1 35.7 2.5 4.1 9 13.7 9.5 14.1.4.3 2.6 3.2 5 6.5 13.9 18.9 28.4 32.8 46 44.1 18.8 12 34.9 18.4 44.5 17.8 5.7-.4 6.7-.7 10.2-3.2 3.8-2.7 6.1-7.4 6.4-13.2.7-14.4-12.2-39.3-35.5-68.5-5.3-6.6-12.3-16.1-15.6-21-3.3-5-6.4-9.5-6.8-10-2-2.6-10.1-19.6-11.7-24.5-2.7-8.1-2.5-17.6.3-22.1 3.5-5.7 6.6-7.3 15-7.6 5.8-.1 8.9.4 14.4 2.3 7.5 2.7 21.1 9.9 29.4 15.5 14.1 9.4 16.8 11.5 21.2 16.8 2.6 3.1 5.2 5.9 5.7 6.3.6.4.7.8.3.8-.4 0-4.6-2.5-9.3-5.5-9.8-6.3-24.9-13.8-31.5-15.5-21.5-5.7-32.6 6.2-26 28 2.1 6.8 9.9 22.5 15.3 30.5 4.2 6.3 13.8 19.6 14.7 20.5 2.3 2.2 13.6 17.2 19.6 26.1 17.4 25.7 23.5 44.6 17.8 55.4-2.5 4.7-8.9 8.5-14.5 8.5-12.8 0-34.5-10.1-55.4-25.8-3.9-2.9-5.1-3.5-3.5-1.7 2.8 3 24 19.4 31 23.9 2.5 1.6 7.4 4.8 11 7.2 13.5 8.8 36.5 20.4 54.3 27.5 16.6 6.6 42.4 14.7 52.7 16.5 1.4.3 3.9.9 5.5 1.4 2.9.8 4.9 1.2 13.9 2.6 2.1.3 4.8.8 6 1 4.9 1 10.2 1.7 24.8 3.1 10.5 1 51.1 1 60.3 0 3.9-.5 9-1 11.5-1.3 6-.6 14.4-1.9 30.5-4.9 6.6-1.3 19.7-4.9 31.5-8.7 56.1-18.2 99.4-44.4 140.1-84.8 20.4-20.3 40.9-45.5 50.9-62.6 1.4-2.3 4.4-7.3 6.6-11.1 4-6.5 18.4-34.5 18.4-35.7 0-.3 1.3-3.4 2.9-6.8 6.9-15.3 15.9-45.3 20.1-66.8 2.4-12.4 2.5-13.1 3.5-23.5.4-3.9 1-7.9 1.2-9 .9-3.5 1.1-57.7.3-64.5-.5-3.6-1.1-9.4-1.5-13-.4-3.6-.8-6.7-1-7-.2-.3-.6-2.6-.9-5-.4-3.7-2.2-12.7-4.1-21-.2-.8-.8-3.8-1.5-6.5-.6-2.8-2.2-8.6-3.5-13-1.3-4.4-2.5-8.3-2.5-8.7-.2-1.2-6.9-20.1-8-22.3-.5-1.1-2.6-6.1-4.6-11-5.5-13.7-9.9-22.2-23.9-46.3-10.6-18.3-34.8-48.6-45.4-56.8-3.5-2.7-6.8-5.4-7.5-5.9-3.4-3.2-20.5-13.6-29.6-18.1-12.4-6.1-19.1-7.9-27.1-7.1-6.9.6-10.4 2.9-13.5 8.8-6.7 12.9 5.3 40.1 33 74.9 34.6 43.3 45.3 73.3 29.7 83.6-7.4 4.8-19.2 3.4-35.3-4.4-14.1-6.9-23.7-13.7-33.4-23.7-9-9.3-9.1-10.1-.6-4.3 2.4 1.7 8.9 5.2 14.5 7.8 15.6 7.4 25.1 8.7 32.7 4.7 17.5-9.2 7.7-39.4-26.5-82.2-12.3-15.3-22.4-30.4-28.2-41.9-6.7-13.3-8.1-18-7.9-26.7.1-6.6.5-8 2.8-11.1 9.1-12 31.9-6.5 62.5 14.8 5.7 4 10.1 6.9 9.7 6.3-1.6-2.7-30.9-24.4-40.6-30.2C516.2 41.5 488 27 484.7 27c-.7 0-1.7-.4-2.2-.8-2.2-1.9-27.5-10.5-44.5-15.1-8-2.1-24.9-5.7-31.5-6.6-2.2-.4-4.7-.8-5.5-1-.8-.2-4-.7-7-1-3-.3-7.1-.8-9-1.1-5.8-.9-59.1-1.2-65.5-.3zM496.9 228c2.3 7.1 2.6 8.2 4.2 18 1.5 8.8 1.3 25.7-.5 36l-1.4 8.5 3.7 4c7.1 7.5 8.3 9 13.6 17 6.7 10 20.4 38.9 19.1 40.2-.2.2-1.4-2.2-2.6-5.4-3.3-8.1-11.4-23.5-16.3-30.7-4.8-7.3-17.6-22.6-18.7-22.6-1.8 0-1.9-3.9-.5-12 3.5-19.4 2.9-38-1.6-52.6-1.1-3.7-2.3-7.4-2.6-8.3-.4-1.4-.3-1.4.5-.1.6.8 2 4.4 3.1 8zm-289.6-5.1c-.3 1.2-1.9 2.3-4.4 2.9-4.9 1.2-5 .3-.1-2.5 4.6-2.7 5.1-2.8 4.5-.4zm-.6 54.3c-.3.8-.6.5-.6-.6-.1-1.1.2-1.7.5-1.3.3.3.4 1.2.1 1.9zm1.1 4.9c-.3.8-.7.3-1.1-1-.4-1.7-.3-2.1.5-1.3.5.5.8 1.6.6 2.3zM537.3 355c.3 1.1.1 1.8-.4 1.4-.5-.3-.9-1.2-.9-2 0-2 .7-1.7 1.3.6zm-31.8 93c-.4.6-2.8 2-5.3 3.2-2.6 1.2-5 2.3-5.4 2.5-.5.2-.8.2-.8-.1 0-.3 2-1.5 4.4-2.6 2.5-1.1 4.8-2.4 5.1-3 .3-.5 1.1-1 1.6-1 .6 0 .7.5.4 1z"/></svg>